<?xml version="1.0" encoding="utf-8" standalone="no"?>
<!DOCTYPE svg PUBLIC "-//W3C//DTD SVG 1.1//EN"
  "http://www.w3.org/Graphics/SVG/1.1/DTD/svg11.dtd">
<svg xmlns:xlink="http://www.w3.org/1999/xlink" width="576pt" height="432pt" viewBox="0 0 576 432" xmlns="http://www.w3.org/2000/svg" version="1.1">
 <metadata>
  <rdf:RDF xmlns:dc="http://purl.org/dc/elements/1.1/" xmlns:cc="http://creativecommons.org/ns#" xmlns:rdf="http://www.w3.org/1999/02/22-rdf-syntax-ns#">
   <cc:Work>
    <dc:type rdf:resource="http://purl.org/dc/dcmitype/StillImage"/>
    <dc:date>2024-09-09T13:58:12.340037</dc:date>
    <dc:format>image/svg+xml</dc:format>
    <dc:creator>
     <cc:Agent>
      <dc:title>Matplotlib v3.9.2, https://matplotlib.org/</dc:title>
     </cc:Agent>
    </dc:creator>
   </cc:Work>
  </rdf:RDF>
 </metadata>
 <defs>
  <style type="text/css">*{stroke-linejoin: round; stroke-linecap: butt}</style>
 </defs>
 <g id="figure_1">
  <g id="patch_1">
   <path d="M 0 432 
L 576 432 
L 576 0 
L 0 0 
z
" style="fill: #ffffff"/>
  </g>
  <g id="axes_1">
   <g id="patch_2">
    <path d="M 72 384.48 
L 518.4 384.48 
L 518.4 51.84 
L 72 51.84 
z
" style="fill: #ffffff"/>
   </g>
   <g id="patch_3">
    <path d="M 92.290909 384.48 
L 110.73719 384.48 
L 110.73719 251.989488 
L 92.290909 251.989488 
z
" clip-path="url(#p2cd19f5f1c)" style="fill: #cfdaec"/>
   </g>
   <g id="patch_4">
    <path d="M 144.994569 384.48 
L 163.44085 384.48 
L 163.44085 264.929184 
L 144.994569 264.929184 
z
" clip-path="url(#p2cd19f5f1c)" style="fill: #cfdaec"/>
   </g>
   <g id="patch_5">
    <path d="M 197.698229 384.48 
L 216.14451 384.48 
L 216.14451 280.596528 
L 197.698229 280.596528 
z
" clip-path="url(#p2cd19f5f1c)" style="fill: #cfdaec"/>
   </g>
   <g id="patch_6">
    <path d="M 250.401889 384.48 
L 268.84817 384.48 
L 268.84817 277.03728 
L 250.401889 277.03728 
z
" clip-path="url(#p2cd19f5f1c)" style="fill: #cfdaec"/>
   </g>
   <g id="patch_7">
    <path d="M 303.105549 384.48 
L 321.55183 384.48 
L 321.55183 276.072624 
L 303.105549 276.072624 
z
" clip-path="url(#p2cd19f5f1c)" style="fill: #cfdaec"/>
   </g>
   <g id="patch_8">
    <path d="M 355.809209 384.48 
L 374.25549 384.48 
L 374.25549 273.976992 
L 355.809209 273.976992 
z
" clip-path="url(#p2cd19f5f1c)" style="fill: #cfdaec"/>
   </g>
   <g id="patch_9">
    <path d="M 408.512869 384.48 
L 426.95915 384.48 
L 426.95915 273.644352 
L 408.512869 273.644352 
z
" clip-path="url(#p2cd19f5f1c)" style="fill: #cfdaec"/>
   </g>
   <g id="patch_10">
    <path d="M 461.216529 384.48 
L 479.66281 384.48 
L 479.66281 272.912544 
L 461.216529 272.912544 
z
" clip-path="url(#p2cd19f5f1c)" style="fill: #cfdaec"/>
   </g>
   <g id="patch_11">
    <path d="M 110.73719 384.48 
L 129.183471 384.48 
L 129.183471 70.767216 
L 110.73719 70.767216 
z
" clip-path="url(#p2cd19f5f1c)" style="fill: #bfbbba"/>
   </g>
   <g id="patch_12">
    <path d="M 163.44085 384.48 
L 181.887131 384.48 
L 181.887131 76.654944 
L 163.44085 76.654944 
z
" clip-path="url(#p2cd19f5f1c)" style="fill: #bfbbba"/>
   </g>
   <g id="patch_13">
    <path d="M 216.14451 384.48 
L 234.590791 384.48 
L 234.590791 81.012528 
L 216.14451 81.012528 
z
" clip-path="url(#p2cd19f5f1c)" style="fill: #bfbbba"/>
   </g>
   <g id="patch_14">
    <path d="M 268.84817 384.48 
L 287.294451 384.48 
L 287.294451 93.686112 
L 268.84817 93.686112 
z
" clip-path="url(#p2cd19f5f1c)" style="fill: #bfbbba"/>
   </g>
   <g id="patch_15">
    <path d="M 321.55183 384.48 
L 339.998111 384.48 
L 339.998111 100.305648 
L 321.55183 100.305648 
z
" clip-path="url(#p2cd19f5f1c)" style="fill: #bfbbba"/>
   </g>
   <g id="patch_16">
    <path d="M 374.25549 384.48 
L 392.701771 384.48 
L 392.701771 107.690256 
L 374.25549 107.690256 
z
" clip-path="url(#p2cd19f5f1c)" style="fill: #bfbbba"/>
   </g>
   <g id="patch_17">
    <path d="M 426.95915 384.48 
L 445.405431 384.48 
L 445.405431 113.644512 
L 426.95915 113.644512 
z
" clip-path="url(#p2cd19f5f1c)" style="fill: #bfbbba"/>
   </g>
   <g id="patch_18">
    <path d="M 479.66281 384.48 
L 498.109091 384.48 
L 498.109091 119.598768 
L 479.66281 119.598768 
z
" clip-path="url(#p2cd19f5f1c)" style="fill: #bfbbba"/>
   </g>
   <g id="matplotlib.axis_1">
    <g id="xtick_1">
     <g id="line2d_1">
      <defs>
       <path id="mdf6b754dd6" d="M 0 0 
L 0 -3.5 
" style="stroke: #000000; stroke-width: 0.8"/>
      </defs>
      <g>
       <use xlink:href="#mdf6b754dd6" x="110.73719" y="384.48" style="stroke: #000000; stroke-width: 0.8"/>
      </g>
     </g>
     <g id="text_1">
      <!-- MAP@3 -->
      <g transform="translate(94.047346 394.83625) scale(0.1 -0.1)">
       <defs>
        <path id="WenQuanYiZenHei-4d" d="M 4756 0 
L 4206 0 
L 4206 3831 
L 4181 3831 
L 2788 0 
L 2419 0 
L 1000 3831 
L 975 3831 
L 975 0 
L 513 0 
L 513 4388 
L 1331 4388 
L 2656 875 
L 3950 4388 
L 4756 4388 
L 4756 0 
z
" transform="scale(0.015625)"/>
        <path id="WenQuanYiZenHei-41" d="M 3550 0 
L 2988 0 
L 2550 1281 
L 919 1281 
L 531 0 
L 69 0 
L 1494 4388 
L 2125 4388 
L 3550 0 
z
M 2425 1694 
L 1756 3800 
L 1075 1694 
L 2425 1694 
z
" transform="scale(0.015625)"/>
        <path id="WenQuanYiZenHei-50" d="M 3388 3075 
Q 3388 2550 3031 2175 
L 3000 2144 
Q 2638 1788 1944 1788 
L 963 1788 
L 963 0 
L 413 0 
L 413 4388 
L 1881 4388 
Q 2588 4388 2938 4094 
Q 3313 3781 3381 3219 
Q 3388 3144 3388 3075 
z
M 2831 3075 
Q 2831 3688 2313 3875 
Q 2138 3931 1925 3931 
L 963 3931 
L 963 2238 
L 1888 2238 
Q 2575 2238 2763 2719 
Q 2831 2875 2831 3075 
z
" transform="scale(0.015625)"/>
        <path id="WenQuanYiZenHei-40" d="M 4894 2613 
Q 4894 1994 4525 1494 
Q 4188 1044 3713 975 
Q 3631 963 3550 963 
Q 3019 963 2944 1306 
Q 2938 1325 2938 1344 
Q 2650 1075 2475 1013 
Q 2356 975 2213 975 
Q 1769 975 1525 1381 
Q 1381 1625 1381 1906 
Q 1381 2463 1781 2913 
Q 2175 3363 2694 3363 
Q 2988 3363 3200 3119 
Q 3294 3013 3325 2894 
L 3444 3231 
L 3863 3231 
L 3419 1888 
L 3344 1581 
L 3344 1563 
Q 3375 1338 3581 1319 
Q 4000 1319 4294 1800 
Q 4506 2144 4506 2488 
Q 4506 3188 3875 3663 
Q 3313 4081 2631 4081 
Q 1956 4081 1356 3531 
Q 775 3000 675 2331 
Q 650 2213 650 2106 
Q 650 1263 1319 744 
Q 1869 319 2613 319 
Q 3088 319 3544 500 
L 3694 156 
Q 3075 -63 2494 -63 
Q 1594 -63 938 488 
Q 225 1081 219 2013 
Q 219 2975 900 3681 
Q 1563 4356 2494 4444 
Q 2619 4456 2731 4456 
Q 3519 4456 4156 3988 
Q 4869 3406 4894 2613 
z
M 2681 2975 
Q 2250 2975 2006 2500 
Q 1850 2213 1850 1906 
Q 1850 1594 2075 1406 
Q 2194 1306 2356 1306 
Q 2744 1306 2988 1875 
Q 3144 2231 3144 2556 
Q 3113 2956 2681 2975 
z
" transform="scale(0.015625)"/>
        <path id="WenQuanYiZenHei-33" d="M 3588 1231 
Q 3588 494 2875 144 
Q 2450 -63 1925 -63 
Q 1044 -63 556 488 
Q 356 706 256 1000 
L 769 1169 
Q 994 375 1913 375 
Q 2631 375 2900 788 
Q 3019 975 3019 1231 
Q 3019 1638 2638 1881 
Q 2325 2081 1613 2069 
L 1338 2069 
L 1338 2494 
Q 1969 2494 2094 2506 
Q 2325 2544 2463 2613 
Q 2763 2756 2844 3100 
Q 2863 3169 2863 3244 
Q 2863 3744 2381 3944 
L 2163 4006 
Q 2056 4025 1931 4025 
Q 1388 4025 1075 3631 
Q 969 3488 906 3313 
L 419 3456 
Q 675 4150 1400 4369 
Q 1669 4456 1975 4456 
Q 2694 4456 3106 4050 
Q 3419 3744 3419 3275 
Q 3419 2813 3025 2513 
Q 2825 2356 2575 2319 
L 2575 2306 
Q 3181 2213 3450 1769 
Q 3588 1525 3588 1231 
z
" transform="scale(0.015625)"/>
       </defs>
       <use xlink:href="#WenQuanYiZenHei-4d"/>
       <use xlink:href="#WenQuanYiZenHei-41" x="81.933594"/>
       <use xlink:href="#WenQuanYiZenHei-50" x="137.890625"/>
       <use xlink:href="#WenQuanYiZenHei-40" x="193.847656"/>
       <use xlink:href="#WenQuanYiZenHei-33" x="273.828125"/>
      </g>
     </g>
    </g>
    <g id="xtick_2">
     <g id="line2d_2">
      <g>
       <use xlink:href="#mdf6b754dd6" x="163.44085" y="384.48" style="stroke: #000000; stroke-width: 0.8"/>
      </g>
     </g>
     <g id="text_2">
      <!-- MAP@4 -->
      <g transform="translate(146.751006 394.83625) scale(0.1 -0.1)">
       <defs>
        <path id="WenQuanYiZenHei-34" d="M 3631 1025 
L 2913 1025 
L 2913 0 
L 2381 0 
L 2381 1025 
L 219 1025 
L 219 1388 
L 2225 4388 
L 2913 4388 
L 2913 1444 
L 3631 1444 
L 3631 1025 
z
M 2381 1444 
L 2381 3963 
L 788 1444 
L 2381 1444 
z
" transform="scale(0.015625)"/>
       </defs>
       <use xlink:href="#WenQuanYiZenHei-4d"/>
       <use xlink:href="#WenQuanYiZenHei-41" x="81.933594"/>
       <use xlink:href="#WenQuanYiZenHei-50" x="137.890625"/>
       <use xlink:href="#WenQuanYiZenHei-40" x="193.847656"/>
       <use xlink:href="#WenQuanYiZenHei-34" x="273.828125"/>
      </g>
     </g>
    </g>
    <g id="xtick_3">
     <g id="line2d_3">
      <g>
       <use xlink:href="#mdf6b754dd6" x="216.14451" y="384.48" style="stroke: #000000; stroke-width: 0.8"/>
      </g>
     </g>
     <g id="text_3">
      <!-- MAP@5 -->
      <g transform="translate(199.454666 394.83625) scale(0.1 -0.1)">
       <defs>
        <path id="WenQuanYiZenHei-35" d="M 3531 1488 
Q 3531 688 2913 250 
Q 2456 -63 1844 -63 
Q 1175 -63 706 350 
Q 413 613 306 975 
L 781 1131 
Q 1000 538 1569 406 
Q 1706 369 1856 369 
Q 2550 369 2850 869 
Q 3000 1131 3000 1494 
Q 3000 2056 2581 2356 
Q 2319 2538 1969 2538 
Q 1400 2538 1031 2075 
Q 981 2013 938 1938 
L 500 2031 
L 644 4388 
L 3244 4388 
L 3200 3919 
L 1044 3919 
L 950 2500 
Q 1431 2975 2006 2975 
Q 2713 2975 3163 2475 
Q 3531 2063 3531 1488 
z
" transform="scale(0.015625)"/>
       </defs>
       <use xlink:href="#WenQuanYiZenHei-4d"/>
       <use xlink:href="#WenQuanYiZenHei-41" x="81.933594"/>
       <use xlink:href="#WenQuanYiZenHei-50" x="137.890625"/>
       <use xlink:href="#WenQuanYiZenHei-40" x="193.847656"/>
       <use xlink:href="#WenQuanYiZenHei-35" x="273.828125"/>
      </g>
     </g>
    </g>
    <g id="xtick_4">
     <g id="line2d_4">
      <g>
       <use xlink:href="#mdf6b754dd6" x="268.84817" y="384.48" style="stroke: #000000; stroke-width: 0.8"/>
      </g>
     </g>
     <g id="text_4">
      <!-- MAP@6 -->
      <g transform="translate(252.158326 394.83625) scale(0.1 -0.1)">
       <defs>
        <path id="WenQuanYiZenHei-36" d="M 3550 1431 
Q 3550 725 3006 288 
Q 2581 -63 1994 -63 
Q 1013 -63 563 825 
Q 288 1363 288 2081 
Q 288 3294 856 3938 
Q 1319 4456 2075 4456 
Q 2969 4456 3363 3756 
Q 3431 3631 3481 3481 
L 2988 3350 
Q 2750 3994 2075 4006 
Q 1056 4006 844 2669 
Q 794 2356 794 1981 
L 806 1981 
Q 1006 2506 1544 2744 
Q 1819 2869 2119 2869 
Q 2788 2869 3213 2375 
Q 3550 1975 3550 1431 
z
M 3038 1406 
Q 3038 1906 2656 2213 
Q 2381 2431 2038 2431 
Q 1525 2431 1181 2044 
Q 919 1744 919 1356 
Q 919 881 1344 581 
Q 1631 375 1981 375 
Q 2519 375 2838 781 
Q 3038 1050 3038 1406 
z
" transform="scale(0.015625)"/>
       </defs>
       <use xlink:href="#WenQuanYiZenHei-4d"/>
       <use xlink:href="#WenQuanYiZenHei-41" x="81.933594"/>
       <use xlink:href="#WenQuanYiZenHei-50" x="137.890625"/>
       <use xlink:href="#WenQuanYiZenHei-40" x="193.847656"/>
       <use xlink:href="#WenQuanYiZenHei-36" x="273.828125"/>
      </g>
     </g>
    </g>
    <g id="xtick_5">
     <g id="line2d_5">
      <g>
       <use xlink:href="#mdf6b754dd6" x="321.55183" y="384.48" style="stroke: #000000; stroke-width: 0.8"/>
      </g>
     </g>
     <g id="text_5">
      <!-- MAP@7 -->
      <g transform="translate(304.861986 394.83625) scale(0.1 -0.1)">
       <defs>
        <path id="WenQuanYiZenHei-37" d="M 3400 4056 
Q 1838 2175 1838 0 
L 1275 0 
Q 1269 1438 2056 2825 
Q 2381 3400 2825 3913 
L 444 3913 
L 500 4388 
L 3400 4388 
L 3400 4056 
z
" transform="scale(0.015625)"/>
       </defs>
       <use xlink:href="#WenQuanYiZenHei-4d"/>
       <use xlink:href="#WenQuanYiZenHei-41" x="81.933594"/>
       <use xlink:href="#WenQuanYiZenHei-50" x="137.890625"/>
       <use xlink:href="#WenQuanYiZenHei-40" x="193.847656"/>
       <use xlink:href="#WenQuanYiZenHei-37" x="273.828125"/>
      </g>
     </g>
    </g>
    <g id="xtick_6">
     <g id="line2d_6">
      <g>
       <use xlink:href="#mdf6b754dd6" x="374.25549" y="384.48" style="stroke: #000000; stroke-width: 0.8"/>
      </g>
     </g>
     <g id="text_6">
      <!-- MAP@8 -->
      <g transform="translate(357.565646 394.83625) scale(0.1 -0.1)">
       <defs>
        <path id="WenQuanYiZenHei-38" d="M 3619 1175 
Q 3619 431 2850 100 
Q 2444 -63 1944 -63 
Q 1231 -63 725 269 
Q 225 594 225 1125 
Q 225 1881 1269 2281 
Q 719 2481 519 2938 
Q 444 3119 444 3319 
Q 444 4000 1144 4294 
Q 1519 4456 1963 4456 
Q 2669 4456 3094 4094 
Q 3425 3813 3425 3369 
Q 3425 2638 2575 2356 
Q 3231 2056 3450 1725 
Q 3619 1488 3619 1175 
z
M 2944 3344 
Q 2944 3906 2288 4019 
Q 2138 4044 1969 4044 
Q 1438 4044 1163 3775 
Q 1000 3613 1000 3375 
Q 1000 2925 1594 2663 
Q 1756 2588 1931 2550 
Q 2581 2725 2788 2956 
Q 2944 3125 2944 3344 
z
M 3075 1094 
Q 3075 1738 1875 2050 
Q 1094 1881 850 1463 
Q 763 1313 763 1131 
Q 763 569 1456 406 
Q 1681 344 1944 344 
Q 2519 344 2850 619 
Q 3075 813 3075 1094 
z
" transform="scale(0.015625)"/>
       </defs>
       <use xlink:href="#WenQuanYiZenHei-4d"/>
       <use xlink:href="#WenQuanYiZenHei-41" x="81.933594"/>
       <use xlink:href="#WenQuanYiZenHei-50" x="137.890625"/>
       <use xlink:href="#WenQuanYiZenHei-40" x="193.847656"/>
       <use xlink:href="#WenQuanYiZenHei-38" x="273.828125"/>
      </g>
     </g>
    </g>
    <g id="xtick_7">
     <g id="line2d_7">
      <g>
       <use xlink:href="#mdf6b754dd6" x="426.95915" y="384.48" style="stroke: #000000; stroke-width: 0.8"/>
      </g>
     </g>
     <g id="text_7">
      <!-- MAP@9 -->
      <g transform="translate(410.269306 394.83625) scale(0.1 -0.1)">
       <defs>
        <path id="WenQuanYiZenHei-39" d="M 3544 2300 
Q 3544 1163 3019 513 
Q 2563 -63 1775 -63 
Q 956 -63 563 488 
Q 463 631 394 813 
L 838 975 
Q 1025 494 1550 388 
Q 1656 369 1775 369 
Q 2594 369 2900 1325 
Q 3044 1769 3038 2313 
L 3025 2313 
Q 2675 1638 1944 1544 
Q 1844 1531 1744 1531 
Q 1050 1531 625 2031 
Q 294 2419 294 2963 
Q 294 3656 813 4094 
Q 1238 4456 1819 4456 
Q 2988 4456 3381 3363 
Q 3544 2900 3544 2300 
z
M 2925 2994 
Q 2925 3563 2469 3844 
Q 2206 4006 1863 4006 
Q 1275 4006 988 3563 
Q 844 3344 825 3056 
Q 819 3006 819 2956 
Q 819 2413 1269 2131 
Q 1538 1963 1875 1963 
Q 2363 1963 2681 2350 
Q 2925 2638 2925 2994 
z
" transform="scale(0.015625)"/>
       </defs>
       <use xlink:href="#WenQuanYiZenHei-4d"/>
       <use xlink:href="#WenQuanYiZenHei-41" x="81.933594"/>
       <use xlink:href="#WenQuanYiZenHei-50" x="137.890625"/>
       <use xlink:href="#WenQuanYiZenHei-40" x="193.847656"/>
       <use xlink:href="#WenQuanYiZenHei-39" x="273.828125"/>
      </g>
     </g>
    </g>
    <g id="xtick_8">
     <g id="line2d_8">
      <g>
       <use xlink:href="#mdf6b754dd6" x="479.66281" y="384.48" style="stroke: #000000; stroke-width: 0.8"/>
      </g>
     </g>
     <g id="text_8">
      <!-- MAP@10 -->
      <g transform="translate(459.974529 394.83625) scale(0.1 -0.1)">
       <defs>
        <path id="WenQuanYiZenHei-31" d="M 3556 0 
L 488 0 
L 488 406 
L 1800 406 
L 1800 3725 
Q 1231 3125 588 2788 
L 588 3338 
Q 1456 3781 1931 4388 
L 2331 4388 
L 2331 406 
L 3556 406 
L 3556 0 
z
" transform="scale(0.015625)"/>
        <path id="WenQuanYiZenHei-30" d="M 3581 2175 
Q 3581 1288 3169 638 
Q 2713 -63 1938 -63 
Q 1025 -63 563 831 
Q 256 1425 256 2188 
Q 256 3188 700 3819 
Q 1138 4456 1888 4456 
Q 2863 4456 3306 3500 
Q 3581 2925 3581 2175 
z
M 3019 2100 
Q 3019 3356 2500 3806 
L 2350 3919 
Q 2144 4031 1888 4031 
Q 1100 4031 888 2956 
Q 819 2625 819 2225 
Q 819 1013 1338 569 
Q 1588 356 1938 356 
Q 2675 356 2925 1294 
Q 3019 1663 3019 2100 
z
" transform="scale(0.015625)"/>
       </defs>
       <use xlink:href="#WenQuanYiZenHei-4d"/>
       <use xlink:href="#WenQuanYiZenHei-41" x="81.933594"/>
       <use xlink:href="#WenQuanYiZenHei-50" x="137.890625"/>
       <use xlink:href="#WenQuanYiZenHei-40" x="193.847656"/>
       <use xlink:href="#WenQuanYiZenHei-31" x="273.828125"/>
       <use xlink:href="#WenQuanYiZenHei-30" x="333.789062"/>
      </g>
     </g>
    </g>
    <g id="text_9">
     <!-- MAP@N -->
     <g transform="translate(278.2125 407.353437) scale(0.1 -0.1)">
      <defs>
       <path id="WenQuanYiZenHei-4e" d="M 3756 0 
L 3219 0 
L 988 3825 
L 988 0 
L 525 0 
L 525 4388 
L 1219 4388 
L 3294 813 
L 3294 4388 
L 3756 4388 
L 3756 0 
z
" transform="scale(0.015625)"/>
      </defs>
      <use xlink:href="#WenQuanYiZenHei-4d"/>
      <use xlink:href="#WenQuanYiZenHei-41" x="81.933594"/>
      <use xlink:href="#WenQuanYiZenHei-50" x="137.890625"/>
      <use xlink:href="#WenQuanYiZenHei-40" x="193.847656"/>
      <use xlink:href="#WenQuanYiZenHei-4e" x="273.828125"/>
     </g>
    </g>
   </g>
   <g id="matplotlib.axis_2">
    <g id="ytick_1">
     <g id="line2d_9">
      <defs>
       <path id="m2360f41749" d="M 0 0 
L 3.5 0 
" style="stroke: #000000; stroke-width: 0.8"/>
      </defs>
      <g>
       <use xlink:href="#m2360f41749" x="72" y="384.48" style="stroke: #000000; stroke-width: 0.8"/>
      </g>
     </g>
     <g id="text_10">
      <!-- 0 -->
      <g transform="translate(62.503125 387.908125) scale(0.1 -0.1)">
       <use xlink:href="#WenQuanYiZenHei-30"/>
      </g>
     </g>
    </g>
    <g id="ytick_2">
     <g id="line2d_10">
      <g>
       <use xlink:href="#m2360f41749" x="72" y="317.952" style="stroke: #000000; stroke-width: 0.8"/>
      </g>
     </g>
     <g id="text_11">
      <!-- 0.2 -->
      <g transform="translate(53.507812 321.380125) scale(0.1 -0.1)">
       <defs>
        <path id="WenQuanYiZenHei-2e" d="M 1344 0 
L 631 0 
L 631 725 
L 1344 725 
L 1344 0 
z
" transform="scale(0.015625)"/>
        <path id="WenQuanYiZenHei-32" d="M 3488 0 
L 369 0 
L 369 456 
L 2150 1850 
Q 2931 2463 2931 3144 
Q 2931 3619 2488 3863 
Q 2231 4013 1931 4013 
Q 1425 4013 1113 3619 
Q 894 3356 881 3013 
L 369 3169 
Q 531 3981 1213 4300 
Q 1544 4456 1950 4456 
Q 2631 4456 3088 4044 
L 3225 3888 
L 3350 3706 
Q 3481 3444 3481 3144 
Q 3481 2313 2519 1569 
L 1069 456 
L 3488 456 
L 3488 0 
z
" transform="scale(0.015625)"/>
       </defs>
       <use xlink:href="#WenQuanYiZenHei-30"/>
       <use xlink:href="#WenQuanYiZenHei-2e" x="59.960938"/>
       <use xlink:href="#WenQuanYiZenHei-32" x="89.941406"/>
      </g>
     </g>
    </g>
    <g id="ytick_3">
     <g id="line2d_11">
      <g>
       <use xlink:href="#m2360f41749" x="72" y="251.424" style="stroke: #000000; stroke-width: 0.8"/>
      </g>
     </g>
     <g id="text_12">
      <!-- 0.4 -->
      <g transform="translate(53.507812 254.852125) scale(0.1 -0.1)">
       <use xlink:href="#WenQuanYiZenHei-30"/>
       <use xlink:href="#WenQuanYiZenHei-2e" x="59.960938"/>
       <use xlink:href="#WenQuanYiZenHei-34" x="89.941406"/>
      </g>
     </g>
    </g>
    <g id="ytick_4">
     <g id="line2d_12">
      <g>
       <use xlink:href="#m2360f41749" x="72" y="184.896" style="stroke: #000000; stroke-width: 0.8"/>
      </g>
     </g>
     <g id="text_13">
      <!-- 0.6 -->
      <g transform="translate(53.507812 188.324125) scale(0.1 -0.1)">
       <use xlink:href="#WenQuanYiZenHei-30"/>
       <use xlink:href="#WenQuanYiZenHei-2e" x="59.960938"/>
       <use xlink:href="#WenQuanYiZenHei-36" x="89.941406"/>
      </g>
     </g>
    </g>
    <g id="ytick_5">
     <g id="line2d_13">
      <g>
       <use xlink:href="#m2360f41749" x="72" y="118.368" style="stroke: #000000; stroke-width: 0.8"/>
      </g>
     </g>
     <g id="text_14">
      <!-- 0.8 -->
      <g transform="translate(53.507812 121.796125) scale(0.1 -0.1)">
       <use xlink:href="#WenQuanYiZenHei-30"/>
       <use xlink:href="#WenQuanYiZenHei-2e" x="59.960938"/>
       <use xlink:href="#WenQuanYiZenHei-38" x="89.941406"/>
      </g>
     </g>
    </g>
    <g id="ytick_6">
     <g id="line2d_14">
      <g>
       <use xlink:href="#m2360f41749" x="72" y="51.84" style="stroke: #000000; stroke-width: 0.8"/>
      </g>
     </g>
     <g id="text_15">
      <!-- 1 -->
      <g transform="translate(62.503125 55.268125) scale(0.1 -0.1)">
       <use xlink:href="#WenQuanYiZenHei-31"/>
      </g>
     </g>
    </g>
    <g id="text_16">
     <!-- MAP值 -->
     <g transform="translate(47.846875 232.852187) rotate(-90) scale(0.1 -0.1)">
      <defs>
       <path id="WenQuanYiZenHei-503c" d="M 6175 -219 
Q 6156 -388 6175 -556 
Q 5863 -544 5550 -544 
L 2313 -544 
Q 2000 -544 1688 -556 
Q 1706 -388 1688 -219 
L 2506 -231 
L 2506 3469 
L 3644 3469 
L 3644 4119 
L 2638 4119 
Q 2325 4119 2013 4100 
Q 2031 4269 2013 4438 
Q 2325 4425 2638 4425 
L 3638 4425 
Q 3638 4719 3619 5013 
Q 3856 4988 4094 5013 
Q 4075 4719 4075 4425 
L 5344 4425 
Q 5650 4425 5963 4438 
Q 5950 4269 5963 4100 
Q 5656 4119 5344 4119 
L 4069 4119 
L 4069 3469 
L 5300 3469 
L 5300 -231 
L 5550 -231 
Q 5863 -231 6175 -219 
z
M 4869 2556 
L 4869 3156 
L 2931 3156 
Q 2931 2850 2931 2556 
L 4869 2556 
z
M 4869 1669 
L 4869 2250 
L 2931 2250 
L 2931 1669 
L 4869 1669 
z
M 4869 731 
L 4869 1363 
L 2931 1363 
L 2931 731 
L 4869 731 
z
M 4869 -231 
L 4869 425 
L 2931 425 
L 2931 -231 
L 4869 -231 
z
M 2106 4925 
Q 1856 4075 1463 3338 
L 1463 31 
Q 1463 -413 1481 -850 
Q 1256 -825 1031 -850 
Q 1050 -413 1050 31 
L 1050 2681 
Q 750 2269 375 1931 
Q 238 2156 0 2256 
Q 331 2544 619 2875 
Q 1094 3425 1300 3950 
Q 1494 4469 1625 5050 
Q 1850 4963 2106 4925 
z
" transform="scale(0.015625)"/>
      </defs>
      <use xlink:href="#WenQuanYiZenHei-4d"/>
      <use xlink:href="#WenQuanYiZenHei-41" x="81.933594"/>
      <use xlink:href="#WenQuanYiZenHei-50" x="137.890625"/>
      <use xlink:href="#WenQuanYiZenHei-503c" x="193.847656"/>
     </g>
    </g>
   </g>
   <g id="patch_19">
    <path d="M 72 384.48 
L 72 51.84 
" style="fill: none; stroke: #000000; stroke-width: 0.8; stroke-linejoin: miter; stroke-linecap: square"/>
   </g>
   <g id="patch_20">
    <path d="M 518.4 384.48 
L 518.4 51.84 
" style="fill: none; stroke: #000000; stroke-width: 0.8; stroke-linejoin: miter; stroke-linecap: square"/>
   </g>
   <g id="patch_21">
    <path d="M 72 384.48 
L 518.4 384.48 
" style="fill: none; stroke: #000000; stroke-width: 0.8; stroke-linejoin: miter; stroke-linecap: square"/>
   </g>
   <g id="patch_22">
    <path d="M 72 51.84 
L 518.4 51.84 
" style="fill: none; stroke: #000000; stroke-width: 0.8; stroke-linejoin: miter; stroke-linecap: square"/>
   </g>
   <g id="legend_1">
    <g id="patch_23">
     <path d="M 440.015625 89.880625 
L 511.4 89.880625 
Q 513.4 89.880625 513.4 87.880625 
L 513.4 58.84 
Q 513.4 56.84 511.4 56.84 
L 440.015625 56.84 
Q 438.015625 56.84 438.015625 58.84 
L 438.015625 87.880625 
Q 438.015625 89.880625 440.015625 89.880625 
z
" style="fill: #ffffff; opacity: 0.8; stroke: #cccccc; stroke-linejoin: miter"/>
    </g>
    <g id="patch_24">
     <path d="M 442.015625 69.199375 
L 462.015625 69.199375 
L 462.015625 62.199375 
L 442.015625 62.199375 
z
" style="fill: #cfdaec"/>
    </g>
    <g id="text_17">
     <!-- 狭义MAP -->
     <g transform="translate(470.015625 69.199375) scale(0.1 -0.1)">
      <defs>
       <path id="WenQuanYiZenHei-72ed" d="M 2938 1506 
Q 2613 1506 2294 1494 
Q 2313 1669 2294 1844 
Q 2613 1825 2938 1825 
L 3744 1825 
L 3744 3694 
L 3044 3694 
Q 2719 3694 2394 3681 
Q 2413 3856 2394 4031 
Q 2719 4013 3044 4013 
L 3744 4013 
L 3744 4375 
Q 3744 4819 3719 5256 
Q 3963 5231 4200 5256 
Q 4175 4819 4175 4375 
L 4175 4013 
L 5244 4013 
Q 5569 4013 5894 4031 
Q 5875 3856 5894 3681 
Q 5569 3694 5244 3694 
L 4175 3694 
L 4175 1825 
L 5525 1825 
Q 5844 1825 6169 1844 
Q 6150 1669 6169 1494 
Q 5844 1506 5525 1506 
L 4475 1506 
Q 4713 819 5075 412 
Q 5438 6 6056 -281 
Q 5819 -394 5713 -631 
Q 5200 -375 4778 153 
Q 4356 681 4125 1313 
Q 3975 569 3456 -3 
Q 2938 -575 2219 -806 
Q 2131 -531 1869 -419 
Q 2588 -281 3100 250 
Q 3613 781 3719 1506 
L 2938 1506 
z
M 4969 3419 
Q 5169 3294 5394 3206 
Q 5125 2675 4644 1919 
Q 4469 2069 4238 2094 
Q 4388 2313 4725 2956 
L 4969 3419 
z
M 3031 2150 
Q 2725 2700 2344 3206 
L 2725 3494 
Q 3131 2963 3450 2375 
L 3031 2150 
z
M 2131 4775 
Q 2288 4581 2469 4425 
Q 2138 4081 1788 3756 
L 1631 3613 
Q 1844 3163 1975 2563 
Q 2288 1113 1944 69 
Q 1731 -731 950 -856 
Q 875 -575 600 -450 
Q 738 -444 928 -409 
Q 1119 -375 1262 -262 
Q 1406 -150 1531 175 
Q 1813 1056 1625 2100 
L 1400 1813 
L 819 1081 
L 469 619 
Q 325 775 81 831 
L 1025 2113 
L 1500 2694 
Q 1419 3044 1306 3325 
L 375 2506 
Q 256 2706 44 2800 
L 644 3331 
L 1088 3750 
Q 800 4175 275 4338 
Q 381 4550 444 4794 
Q 1031 4556 1381 4038 
L 2131 4775 
z
" transform="scale(0.015625)"/>
       <path id="WenQuanYiZenHei-4e49" d="M 3269 3813 
Q 2888 4475 2425 5088 
L 2838 5400 
Q 3325 4763 3725 4069 
L 3269 3813 
z
M 6113 -313 
Q 5894 -488 5838 -763 
Q 4456 -463 3350 581 
Q 2081 -669 369 -1013 
Q 350 -719 163 -488 
Q 1900 -138 3038 894 
Q 1819 2238 1263 4163 
L 1675 4269 
Q 1919 3425 2350 2606 
Q 2781 1788 3331 1200 
Q 3606 1513 3828 1928 
Q 4050 2344 4315 3172 
Q 4581 4000 4650 4544 
Q 4938 4488 5225 4500 
Q 5119 3500 4712 2572 
Q 4306 1644 3644 894 
Q 4688 -25 6113 -313 
z
" transform="scale(0.015625)"/>
      </defs>
      <use xlink:href="#WenQuanYiZenHei-72ed"/>
      <use xlink:href="#WenQuanYiZenHei-4e49" x="100"/>
      <use xlink:href="#WenQuanYiZenHei-4d" x="200"/>
      <use xlink:href="#WenQuanYiZenHei-41" x="281.933594"/>
      <use xlink:href="#WenQuanYiZenHei-50" x="337.890625"/>
     </g>
    </g>
    <g id="patch_25">
     <path d="M 442.015625 84.219687 
L 462.015625 84.219687 
L 462.015625 77.219687 
L 442.015625 77.219687 
z
" style="fill: #bfbbba"/>
    </g>
    <g id="text_18">
     <!-- 广义MAP -->
     <g transform="translate(470.015625 84.219687) scale(0.1 -0.1)">
      <defs>
       <path id="WenQuanYiZenHei-5e7f" d="M 944 4338 
L 3169 4344 
Q 2950 4731 2681 5094 
L 3100 5400 
Q 3475 4894 3763 4344 
L 5294 4344 
Q 5719 4344 6138 4363 
Q 6113 4131 6138 3906 
Q 5719 3925 5294 3925 
L 1419 3925 
L 1425 1419 
Q 1431 0 619 -756 
Q 450 -525 169 -469 
Q 975 75 950 1419 
L 944 4338 
z
" transform="scale(0.015625)"/>
      </defs>
      <use xlink:href="#WenQuanYiZenHei-5e7f"/>
      <use xlink:href="#WenQuanYiZenHei-4e49" x="100"/>
      <use xlink:href="#WenQuanYiZenHei-4d" x="200"/>
      <use xlink:href="#WenQuanYiZenHei-41" x="281.933594"/>
      <use xlink:href="#WenQuanYiZenHei-50" x="337.890625"/>
     </g>
    </g>
   </g>
  </g>
 </g>
 <defs>
  <clipPath id="p2cd19f5f1c">
   <rect x="72" y="51.84" width="446.4" height="332.64"/>
  </clipPath>
 </defs>
</svg>
